HIERARCHY
ROOT Hips
{
  OFFSET -0.557177 88.3909 1.45027
  CHANNELS 6 Xposition Yposition Zposition Zrotation Xrotation Yrotation
  JOINT Spine
  {
    OFFSET 0 10.1816 0.1315
    CHANNELS 6 Xposition Yposition Zposition Zrotation Xrotation Yrotation
    JOINT Spine1
    {
      OFFSET 0 10.0835 -1.0008
      CHANNELS 6 Xposition Yposition Zposition Zrotation Xrotation Yrotation
      JOINT Spine2
      {
        OFFSET 0 9.1 -1.3734
        CHANNELS 6 Xposition Yposition Zposition Zrotation Xrotation Yrotation
        JOINT Neck
        {
          OFFSET 0 16.6717 -2.5162
          CHANNELS 6 Xposition Yposition Zposition Zrotation Xrotation Yrotation
          JOINT Head
          {
            OFFSET 0 9.6179 1.685
            CHANNELS 6 Xposition Yposition Zposition Zrotation Xrotation Yrotation
            JOINT HeadTop_End
            {
              OFFSET 0 17.8152 2.585
              CHANNELS 6 Xposition Yposition Zposition Zrotation Xrotation Yrotation
              End Site
              {
                OFFSET 0 0 0
              }
            }
            JOINT LeftEye
            {
              OFFSET 3.0676 6.4095 9.2836
              CHANNELS 6 Xposition Yposition Zposition Zrotation Xrotation Yrotation
              End Site
              {
                OFFSET 0 0 0
              }
            }
            JOINT RightEye
            {
              OFFSET -3.0676 6.4095 9.2835
              CHANNELS 6 Xposition Yposition Zposition Zrotation Xrotation Yrotation
              End Site
              {
                OFFSET 0 0 0
              }
            }
          }
        }
        JOINT LeftShoulder
        {
          OFFSET 4.5704 10.946 -2.628
          CHANNELS 6 Xposition Yposition Zposition Zrotation Xrotation Yrotation
          JOINT LeftArm
          {
            OFFSET 10.5924 -0.5246 -2.2321
            CHANNELS 6 Xposition Yposition Zposition Zrotation Xrotation Yrotation
            JOINT LeftForeArm
            {
              OFFSET 27.8415 -0.0001 0
              CHANNELS 6 Xposition Yposition Zposition Zrotation Xrotation Yrotation
              JOINT LeftHand
              {
                OFFSET 28.3288 0 0
                CHANNELS 6 Xposition Yposition Zposition Zrotation Xrotation Yrotation
                JOINT LeftHandThumb1
                {
                  OFFSET 2.4661 -1.575 2.6824
                  CHANNELS 6 Xposition Yposition Zposition Zrotation Xrotation Yrotation
                  JOINT LeftHandThumb2
                  {
                    OFFSET 3.2298 -1.8647 1.8647
                    CHANNELS 6 Xposition Yposition Zposition Zrotation Xrotation Yrotation
                    JOINT LeftHandThumb3
                    {
                      OFFSET 2.6526 -1.5315 1.5315
                      CHANNELS 6 Xposition Yposition Zposition Zrotation Xrotation Yrotation
                      End Site
                      {
                        OFFSET 1.9546 -1.1285 1.1285
                      }
                    }
                  }
                }
                JOINT LeftHandIndex1
                {
                  OFFSET 9.1093 -0.5171 2.2601
                  CHANNELS 6 Xposition Yposition Zposition Zrotation Xrotation Yrotation
                  JOINT LeftHandIndex2
                  {
                    OFFSET 3.6764 0 0
                    CHANNELS 6 Xposition Yposition Zposition Zrotation Xrotation Yrotation
                    JOINT LeftHandIndex3
                    {
                      OFFSET 2.8831 0 0
                      CHANNELS 6 Xposition Yposition Zposition Zrotation Xrotation Yrotation
                      End Site
                      {
                        OFFSET 2.3927 0 0
                      }
                    }
                  }
                }
                JOINT LeftHandMiddle1
                {
                  OFFSET 9.5334 0 0
                  CHANNELS 6 Xposition Yposition Zposition Zrotation Xrotation Yrotation
                  JOINT LeftHandMiddle2
                  {
                    OFFSET 3.6982 0 0
                    CHANNELS 6 Xposition Yposition Zposition Zrotation Xrotation Yrotation
                    JOINT LeftHandMiddle3
                    {
                      OFFSET 2.9509 0 0
                      CHANNELS 6 Xposition Yposition Zposition Zrotation Xrotation Yrotation
                      End Site
                      {
                        OFFSET 2.8339 0 0
                      }
                    }
                  }
                }
                JOINT LeftHandRing1
                {
                  OFFSET 9.1045 -0.0439 -1.8651
                  CHANNELS 6 Xposition Yposition Zposition Zrotation Xrotation Yrotation
                  JOINT LeftHandRing2
                  {
                    OFFSET 3.154 0 0
                    CHANNELS 6 Xposition Yposition Zposition Zrotation Xrotation Yrotation
                    JOINT LeftHandRing3
                    {
                      OFFSET 2.9377 0 0
                      CHANNELS 6 Xposition Yposition Zposition Zrotation Xrotation Yrotation
                      End Site
                      {
                        OFFSET 2.6475 0 0
                      }
                    }
                  }
                }
                JOINT LeftHandPinky1
                {
                  OFFSET 8.0778 -0.4887 -3.8061
                  CHANNELS 6 Xposition Yposition Zposition Zrotation Xrotation Yrotation
                  JOINT LeftHandPinky2
                  {
                    OFFSET 3.6 0 0
                    CHANNELS 6 Xposition Yposition Zposition Zrotation Xrotation Yrotation
                    JOINT LeftHandPinky3
                    {
                      OFFSET 2.1142 0 0
                      CHANNELS 6 Xposition Yposition Zposition Zrotation Xrotation Yrotation
                      End Site
                      {
                        OFFSET 1.9757 0 0
                      }
                    }
                  }
                }
              }
            }
          }
        }
        JOINT RightShoulder
        {
          OFFSET -4.57 10.9462 -2.628
          CHANNELS 6 Xposition Yposition Zposition Zrotation Xrotation Yrotation
          JOINT RightArm
          {
            OFFSET -10.5928 -0.5248 -2.2321
            CHANNELS 6 Xposition Yposition Zposition Zrotation Xrotation Yrotation
            JOINT RightForeArm
            {
              OFFSET -27.8415 0 0
              CHANNELS 6 Xposition Yposition Zposition Zrotation Xrotation Yrotation
              JOINT RightHand
              {
                OFFSET -28.3288 0 0.0001
                CHANNELS 6 Xposition Yposition Zposition Zrotation Xrotation Yrotation
                JOINT RightHandPinky1
                {
                  OFFSET -8.0767 -0.4885 -3.806
                  CHANNELS 6 Xposition Yposition Zposition Zrotation Xrotation Yrotation
                  JOINT RightHandPinky2
                  {
                    OFFSET -3.6 0 0.0001
                    CHANNELS 6 Xposition Yposition Zposition Zrotation Xrotation Yrotation
                    JOINT RightHandPinky3
                    {
                      OFFSET -2.1142 0 0
                      CHANNELS 6 Xposition Yposition Zposition Zrotation Xrotation Yrotation
                      End Site
                      {
                        OFFSET -1.9757 0 0
                      }
                    }
                  }
                }
                JOINT RightHandRing1
                {
                  OFFSET -9.1036 -0.0439 -1.8651
                  CHANNELS 6 Xposition Yposition Zposition Zrotation Xrotation Yrotation
                  JOINT RightHandRing2
                  {
                    OFFSET -3.154 0 0
                    CHANNELS 6 Xposition Yposition Zposition Zrotation Xrotation Yrotation
                    JOINT RightHandRing3
                    {
                      OFFSET -2.9377 0 0
                      CHANNELS 6 Xposition Yposition Zposition Zrotation Xrotation Yrotation
                      End Site
                      {
                        OFFSET -2.6475 0 0
                      }
                    }
                  }
                }
                JOINT RightHandMiddle1
                {
                  OFFSET -9.5325 0 0
                  CHANNELS 6 Xposition Yposition Zposition Zrotation Xrotation Yrotation
                  JOINT RightHandMiddle2
                  {
                    OFFSET -3.6982 0 0
                    CHANNELS 6 Xposition Yposition Zposition Zrotation Xrotation Yrotation
                    JOINT RightHandMiddle3
                    {
                      OFFSET -2.9509 0 0
                      CHANNELS 6 Xposition Yposition Zposition Zrotation Xrotation Yrotation
                      End Site
                      {
                        OFFSET -2.8339 0 0.0001
                      }
                    }
                  }
                }
                JOINT RightHandIndex1
                {
                  OFFSET -9.1083 -0.5168 2.2601
                  CHANNELS 6 Xposition Yposition Zposition Zrotation Xrotation Yrotation
                  JOINT RightHandIndex2
                  {
                    OFFSET -3.6764 0 0
                    CHANNELS 6 Xposition Yposition Zposition Zrotation Xrotation Yrotation
                    JOINT RightHandIndex3
                    {
                      OFFSET -2.8831 0 0
                      CHANNELS 6 Xposition Yposition Zposition Zrotation Xrotation Yrotation
                      End Site
                      {
                        OFFSET -2.3927 0 0
                      }
                    }
                  }
                }
                JOINT RightHandThumb1
                {
                  OFFSET -2.4648 -1.5727 2.6826
                  CHANNELS 6 Xposition Yposition Zposition Zrotation Xrotation Yrotation
                  JOINT RightHandThumb2
                  {
                    OFFSET -3.2298 -1.8647 1.8647
                    CHANNELS 6 Xposition Yposition Zposition Zrotation Xrotation Yrotation
                    JOINT RightHandThumb3
                    {
                      OFFSET -2.6526 -1.5314 1.5314
                      CHANNELS 6 Xposition Yposition Zposition Zrotation Xrotation Yrotation
                      End Site
                      {
                        OFFSET -1.9546 -1.1285 1.1285
                      }
                    }
                  }
                }
              }
            }
          }
        }
      }
    }
  }
  JOINT LeftUpLeg
  {
    OFFSET 8.2078 -6.7517 -1.5996
    CHANNELS 6 Xposition Yposition Zposition Zrotation Xrotation Yrotation
    JOINT LeftLeg
    {
      OFFSET 0 -44.3705 0.2846
      CHANNELS 6 Xposition Yposition Zposition Zrotation Xrotation Yrotation
      JOINT LeftFoot
      {
        OFFSET 0 -44.4279 -2.9822
        CHANNELS 6 Xposition Yposition Zposition Zrotation Xrotation Yrotation
        JOINT LeftToeBase
        {
          OFFSET 0 -8.7287 10.7106
          CHANNELS 6 Xposition Yposition Zposition Zrotation Xrotation Yrotation
          End Site
          {
            OFFSET 0 -0.0007 9.2781
          }
        }
      }
    }
  }
  JOINT RightUpLeg
  {
    OFFSET -8.2078 -6.7517 -1.5996
    CHANNELS 6 Xposition Yposition Zposition Zrotation Xrotation Yrotation
    JOINT RightLeg
    {
      OFFSET 0 -44.3705 0.2862
      CHANNELS 6 Xposition Yposition Zposition Zrotation Xrotation Yrotation
      JOINT RightFoot
      {
        OFFSET 0 -44.4277 -2.9838
        CHANNELS 6 Xposition Yposition Zposition Zrotation Xrotation Yrotation
        JOINT RightToeBase
        {
          OFFSET 0 -8.7287 10.7106
          CHANNELS 6 Xposition Yposition Zposition Zrotation Xrotation Yrotation
          End Site
          {
            OFFSET 0 -0.0007 9.2781
          }
        }
      }
    }
  }
}
MOTION
Frames:	4
Frame Time:	0.0333333
-0.557177 88.3909 1.45027 -9.4137 10.9713 -5.41047 0 10.1816 0.1315 19.1323 3.03929 3.00729 -3.55271e-015 10.0835 -1.0008 -4.46225 3.12725 0.919144 -1.77636e-015 9.1 -1.3734 -4.43324 3.18023 0.937793 0 16.6717 -2.5162 -0.340029 16.1807 0.326321 3.88578e-016 9.6179 1.685 -2.52868 -27.5994 -1.65745 8.88178e-016 17.8152 2.585 -4.22417e-016 7.95139e-016 -0 3.0676 6.4095 9.2836 -4.22417e-016 7.95139e-016 -0 -3.0676 6.4095 9.2835 -4.22417e-016 7.95139e-016 -0 4.5704 10.946 -2.628 5.62891 0.61375 -4.41262 10.5924 -0.5246 -2.2321 -79.4806 32.3375 35.605 27.8415 -0.0001 -1.42109e-014 -0.000212578 -1.8365e-006 -49.9608 28.3288 -3.55271e-015 7.10543e-015 3.49642 -24.0627 -29.4139 2.4661 -1.575 2.6824 1.57316 2.10609 -8.25473 3.2298 -1.8647 1.8647 1.70757 7.13175 17.04 2.6526 -1.5315 1.5315 8.79594 -5.76618 -0.427085 9.1093 -0.5171 2.2601 7.49153 -4.65028 -1.09384 3.6764 0 3.55271e-015 -24.3556 -0.520439 2.41133 2.8831 0 -7.10543e-015 -13.5288 -0.16222 1.36757 9.5334 0 -1.77636e-015 -10.8988 -0.476655 7.24018 3.6982 0 -1.77636e-015 -26.0535 -0.594276 2.5682 2.9509 1.77636e-015 -1.77636e-015 -4.22949 -0.0159163 0.431114 9.1045 -0.0439 -1.8651 -21.033 -0.0437513 7.15086 3.154 0 1.77636e-015 -21.6911 -0.414053 2.16097 2.9377 0 -1.77636e-015 -24.7345 -0.536515 2.44652 8.0778 -0.4887 -3.8061 -25.7225 -5.25116 12.748 3.6 -1.77636e-015 1.77636e-015 -15.6186 -0.215879 1.57395 2.1142 -7.10543e-015 3.55271e-015 -19.1237 -0.32267 1.91536 -4.57 10.9462 -2.628 9.88312 0.382495 -2.70001 -10.5928 -0.5248 -2.2321 65.8766 6.44787 45.1643 -27.8415 7.10543e-015 7.10543e-015 -1.26228e-005 -2.53428e-006 73.6344 -28.3288 0 0.0001 8.13017 -12.9434 8.14863 -8.0767 -0.4885 -3.806 9.37243 0.852809 -5.11697 -3.6 0 0.0001 20.0534 -0.280859 -1.58996 -2.1142 -7.10543e-015 0 16.9647 -0.201963 -1.35418 -9.1036 -0.0439 -1.8651 8.28296 -0.498398 -9.1659 -3.154 0 0 32.7856 -0.73959 -2.51369 -2.9377 0 -1.42109e-014 14.144 -0.140689 -1.13405 -9.5325 -3.55271e-015 0 7.33368 -0.32967 -4.8474 -3.6982 7.10543e-015 1.42109e-014 23.6463 -0.389738 -1.86163 -2.9509 0 -1.42109e-014 11.5486 -0.0939503 -0.931111 -9.1083 -0.5168 2.2601 -2.93011 0.158619 -2.03915 -3.6764 0 1.42109e-014 13.5182 -0.128567 -1.08483 -2.8831 0 0 6.79677 -0.0326037 -0.54922 -2.4648 -1.5727 2.6826 -13.335 -33.7238 -6.12856 -3.2298 -1.8647 1.8647 -2.65789 8.78108 -24.3531 -2.6526 -1.5314 1.5314 -12.7 -4.38233 -2.47341 8.2078 -6.7517 -1.5996 -8.20692 -59.4349 -10.6742 0 -44.3705 0.2846 -179.052 35.2303 -172.138 -1.11022e-015 -44.4279 -2.9822 -18.3798 18.6424 3.82668 -8.88178e-016 -8.7287 10.7106 4.06188e-006 9.20758 1.69371e-006 -8.2078 -6.7517 -1.5996 0.931983 -17.3745 -9.02931 0 -44.3705 0.2862 20.5262 57.8375 -18.6894 0 -44.4277 -2.9838 -7.05125 -10.7029 11.816 1.77636e-015 -8.7287 10.7106 -1.14134 -37.514 -0.683026 
-0.802353 95.9473 22.014 1.18944 6.63063 -19.4422 0 10.1816 0.1315 6.21391 6.37972 20.3442 3.55271e-015 10.0835 -1.0008 -6.71041 2.23068 2.96067 4.44089e-016 9.1 -1.3734 -6.79577 2.45353 2.72438 0 16.6717 -2.5162 -3.82724 13.7818 -0.254752 3.55271e-015 9.6179 1.685 -4.83199 -20.0456 -10.7206 0 17.8152 2.585 3.06874e-015 1.59028e-015 1.98785e-016 3.0676 6.4095 9.2836 3.06874e-015 1.59028e-015 1.98785e-016 -3.0676 6.4095 9.2835 3.06874e-015 1.59028e-015 1.98785e-016 4.5704 10.946 -2.628 5.08576 0.646711 0.134982 10.5924 -0.5246 -2.2321 -70.7625 25.7119 33.1234 27.8415 -0.0001 1.42109e-014 -0.000213891 5.68814e-006 -29.3848 28.3288 1.42109e-014 -7.10543e-015 -1.96945 1.83831 -22.3778 2.4661 -1.575 2.6824 0.890343 2.50929 -5.92404 3.2298 -1.8647 1.8647 1.70872 7.13045 17.0337 2.6526 -1.5315 1.5315 8.02546 -3.69707 1.57583 9.1093 -0.5171 2.2601 9.47345 -4.59102 0.200115 3.6764 0 3.55271e-015 -23.5385 -0.486584 2.33508 2.8831 3.55271e-015 3.55271e-015 -14.3898 -0.18341 1.45283 9.5334 7.10543e-015 0 -7.51367 0.331333 6.13983 3.6982 3.55271e-015 0 -22.9436 -0.462612 2.27927 2.9509 -3.55271e-015 0 -1.73821 -0.0026889 0.177301 9.1045 -0.0439 -1.8651 -16.5115 0.773398 8.16776 3.154 -7.10543e-015 0 -21.7948 -0.417983 2.17082 2.9377 -1.77636e-015 0 -22.7955 -0.456736 2.26534 8.0778 -0.4887 -3.8061 -18.6965 -2.3848 13.9044 3.6 5.32907e-015 0 -17.9866 -0.285745 1.80533 2.1142 5.32907e-015 7.10543e-015 -16.3443 -0.23627 1.64516 -4.57 10.9462 -2.628 3.36144 -0.521581 0.334983 -10.5928 -0.5248 -2.2321 53.0633 -5.8323 55.478 -27.8415 0 0 -1.89079e-005 4.92545e-006 76.6605 -28.3288 0 0.0001 22.4376 -3.32262 4.05267 -8.0767 -0.4885 -3.806 11.222 0.780373 -5.12153 -3.6 0 0.0001 19.5429 -0.266863 -1.55104 -2.1142 0 7.10543e-015 16.4542 -0.19007 -1.31458 -9.1036 -0.0439 -1.8651 8.7944 -0.263563 -9.42576 -3.154 0 -7.10543e-015 30.8258 -0.655863 -2.37869 -2.9377 0 0 12.1829 -0.10451 -0.979375 -9.5325 0 -7.10543e-015 7.47952 -0.939777 -5.10883 -3.6982 -2.84217e-014 7.10543e-015 22.7231 -0.3603 -1.79287 -2.9509 2.84217e-014 0 10.625 -0.0795383 -0.857702 -9.1083 -0.5168 2.2601 -2.39617 0.139416 -2.0838 -3.6764 0 -7.10543e-015 14.4692 -0.147196 -1.15958 -2.8831 0 7.10543e-015 7.74789 -0.0423689 -0.625641 -2.4648 -1.5727 2.6826 -11.5574 -31.0481 -4.78205 -3.2298 -1.8647 1.8647 -2.95239 7.90063 -22.187 -2.6526 -1.5314 1.5314 -12.3498 -3.67204 -1.21389 8.2078 -6.7517 -1.5996 -132.868 -84.2821 -152.887 7.10543e-015 -44.3705 0.2846 -177.853 43.2098 175.811 0 -44.4279 -2.9822 -26.6013 39.3313 12.3686 -3.55271e-015 -8.7287 10.7106 2.732e-006 11.8332 -8.07756e-006 -8.2078 -6.7517 -1.5996 -13.0404 7.32346 -10.0688 0 -44.3705 0.2862 5.97351 28.1282 -4.59592 0 -44.4277 -2.9838 -10.208 8.98613 26.6068 0 -8.7287 10.7106 0.384148 -40.3237 0.244038 
-2.64772 104.701 37.3256 11.5584 1.30788 -23.7525 -3.55271e-015 10.1816 0.1315 -9.37507 6.59492 33.7434 -8.88178e-016 10.0835 -1.0008 -7.94786 3.29677 4.55078 0 9.1 -1.3734 -7.98935 3.66043 4.30923 7.10543e-015 16.6717 -2.5162 -7.70206 8.99139 -0.711548 -1.42109e-014 9.6179 1.685 -2.65753 -8.93423 -19.1355 0 17.8152 2.585 1.59028e-015 0 7.95139e-016 3.0676 6.4095 9.2836 1.59028e-015 0 7.95139e-016 -3.0676 6.4095 9.2835 1.59028e-015 0 7.95139e-016 4.5704 10.946 -2.628 2.55375 0.327246 5.70852 10.5924 -0.5246 -2.2321 -51.5146 17.2921 29.6994 27.8415 -0.0001 0 -0.000202634 1.62279e-005 -20.2208 28.3288 -1.42109e-014 0 -2.70826 31.754 -15.9336 2.4661 -1.575 2.6824 -0.106417 0.522853 -3.51266 3.2298 -1.8647 1.8647 1.71061 7.12838 17.0239 2.6526 -1.5315 1.5315 5.849 -2.58805 1.73401 9.1093 -0.5171 2.2601 11.0075 -4.53566 1.6859 3.6764 0 -1.42109e-014 -23.1569 -0.471135 2.29932 2.8831 3.55271e-015 0 -16.2515 -0.233618 1.63608 9.5334 3.55271e-015 0 -6.02722 1.30168 5.72626 3.6982 0 0 -21.9105 -0.422372 2.18178 2.9509 1.77636e-015 0 -0.910743 -0.000731962 0.0929166 9.1045 -0.0439 -1.8651 -13.9755 1.54515 9.59946 3.154 0 0 -22.1452 -0.431356 2.20398 2.9377 0 -1.42109e-014 -20.8631 -0.383381 2.08221 8.0778 -0.4887 -3.8061 -11.3174 -0.0286565 14.5941 3.6 1.77636e-015 -1.42109e-014 -20.7984 -0.381043 2.07603 2.1142 1.77636e-015 0 -13.4669 -0.160737 1.36142 -4.57 10.9462 -2.628 -2.06419 -1.19266 0.797374 -10.5928 -0.5248 -2.2321 35.5437 -21.8856 59.033 -27.8415 -2.84217e-014 7.10543e-015 -9.63613e-007 4.80758e-007 75.0308 -28.3288 0 0.0001 30.4458 -1.6062 0.319644 -8.0767 -0.4885 -3.806 20.5616 -0.116641 -4.60768 -3.6 0 0.0001 19.95 -0.277989 -1.58208 -2.1142 -2.84217e-014 0 16.8613 -0.199526 -1.34617 -9.1036 -0.0439 -1.8651 14.256 -0.483245 -8.45286 -3.154 0 7.10543e-015 32.0434 -0.70734 -2.46289 -2.9377 0 -1.42109e-014 13.4012 -0.126367 -1.07561 -9.5325 0 0 13.3902 -1.96954 -5.94179 -3.6982 0 0 22.6945 -0.359384 -1.79073 -2.9509 0 0 10.5964 -0.0791394 -0.855415 -9.1083 -0.5168 2.2601 3.62174 -0.105545 -2.57387 -3.6764 0 -7.10543e-015 15.3286 -0.165107 -1.22686 -2.8831 0 7.10543e-015 8.60744 -0.0522711 -0.694552 -2.4648 -1.5727 2.6826 -8.76504 -26.4624 -2.76861 -3.2298 -1.8647 1.8647 -2.88308 8.11914 -22.7132 -2.6526 -1.5314 1.5314 -11.7523 -2.61316 1.48071 8.2078 -6.7517 -1.5996 -145.727 -83.5804 -170.466 -1.42109e-014 -44.3705 0.2846 178.757 68.3582 -177.495 0 -44.4279 -2.9822 -11.6606 31.1932 5.51663 1.42109e-014 -8.7287 10.7106 1.4087e-005 10.0683 5.14978e-006 -8.2078 -6.7517 -1.5996 -23.4252 10.625 -16.3823 7.10543e-015 -44.3705 0.2862 0.805493 20.9525 -1.02228 0 -44.4277 -2.9838 -12.8651 19.1855 32.0172 -1.77636e-015 -8.7287 10.7106 5.95983e-006 -23.3665 -3.93308e-006 
-3.89874 111.587 51.4399 17.9588 -1.04088 -21.5006 0 10.1816 0.1315 -20.7141 7.8866 38.3137 0 10.0835 -1.0008 -6.71449 4.01798 5.00622 -3.55271e-015 9.1 -1.3734 -6.63461 4.29674 4.9277 7.10543e-015 16.6717 -2.5162 -10.9701 2.12881 -0.888472 -1.42109e-014 9.6179 1.685 6.62557 1.60883 -23.9715 0 17.8152 2.585 -1.59028e-015 0 -0 3.0676 6.4095 9.2836 -1.59028e-015 0 -0 -3.0676 6.4095 9.2835 -1.59028e-015 0 -0 4.5704 10.946 -2.628 -0.124988 -0.376672 9.9542 10.5924 -0.5246 -2.2321 -26.9559 5.00765 31.3198 27.8415 -0.0001 -1.42109e-014 -0.000201218 -1.15254e-005 -27.1763 28.3288 0 -7.10543e-015 0.924273 45.6138 -6.74327 2.4661 -1.575 2.6824 -1.25812 -2.41778 -1.70262 3.2298 -1.8647 1.8647 1.70516 7.1345 17.0531 2.6526 -1.5315 1.5315 3.60303 -4.13133 -2.25395 9.1093 -0.5171 2.2601 12.3287 -4.4923 2.90614 3.6764 1.42109e-014 -2.84217e-014 -21.3301 -0.400536 2.12669 2.8831 -7.10543e-015 1.42109e-014 -16.8079 -0.249773 1.69051 9.5334 0 1.42109e-014 -5.19593 2.1641 5.59814 3.6982 7.10543e-015 -1.42109e-014 -20.2556 -0.36162 2.02414 2.9509 -3.55271e-015 0 0.414768 -0.000140694 -0.0423121 9.1045 -0.0439 -1.8651 -11.8053 2.13731 10.7338 3.154 0 0 -21.1538 -0.394014 2.1099 2.9377 3.55271e-015 0 -18.1568 -0.29113 1.82183 8.0778 -0.4887 -3.8061 -5.81528 1.24547 15.1063 3.6 -7.10543e-015 0 -22.0544 -0.427863 2.1954 2.1142 7.10543e-015 0 -10.1167 -0.0908989 1.02681 -4.57 10.9462 -2.628 -4.83409 -0.718519 -0.0592831 -10.5928 -0.5248 -2.2321 6.87485 -35.1488 43.6653 -27.8415 2.84217e-014 0 -1.02228e-005 -2.05046e-006 61.5985 -28.3288 0 0.0001 22.1116 -9.25183 5.45437 -8.0767 -0.4885 -3.806 26.3353 -0.253864 -5.42358 -3.6 0 0.0001 20.0787 -0.281561 -1.5919 -2.1142 2.84217e-014 0 16.99 -0.202559 -1.35613 -9.1036 -0.0439 -1.8651 16.018 -0.629022 -7.50518 -3.154 0 0 34.4079 -0.812355 -2.62324 -2.9377 2.84217e-014 -1.42109e-014 15.7674 -0.174629 -1.26111 -9.5325 0 -1.42109e-014 16.9463 -2.92112 -6.77238 -3.6982 0 0 23.7849 -0.394245 -1.87192 -2.9509 0 0 11.6873 -0.0962278 -0.942126 -9.1083 -0.5168 2.2601 10.1737 -0.429145 -3.07514 -3.6764 -2.84217e-014 0 17.8879 -0.224363 -1.42556 -2.8831 0 0 11.1671 -0.0878687 -0.898807 -2.4648 -1.5727 2.6826 -4.1654 -16.9041 0.592498 -3.2298 -1.8647 1.8647 -2.75943 8.4888 -23.6236 -2.6526 -1.5314 1.5314 -11.2109 -1.19099 4.57675 8.2078 -6.7517 -1.5996 -137.254 -86.376 -158.156 -1.42109e-014 -44.3705 0.2846 88.3544 86.382 -80.2509 0 -44.4279 -2.9822 5.5429 10.7577 -0.418879 0 -8.7287 10.7106 2.64504e-005 11.2873 -3.08009e-006 -8.2078 -6.7517 -1.5996 -24.6002 11.5398 -19.5153 -3.55271e-015 -44.3705 0.2862 -2.54348 19.0347 2.82786 2.66454e-015 -44.4277 -2.9838 -3.85553 29.2469 19.9899 0 -8.7287 10.7106 3.38592e-007 -12.4379 -4.54455e-006 
